<svg width="199" height="44" viewBox="0 0 199 44" fill="none" xmlns="http://www.w3.org/2000/svg">
<path d="M1.01008 43C0.610077 43 0.410077 42.8 0.410077 42.4V1.6C0.410077 1.2 0.610077 0.999997 1.01008 0.999997H4.07008C4.47008 0.999997 4.67008 1.2 4.67008 1.6V39.04C4.67008 39.2 4.75008 39.28 4.91008 39.28H22.3701C22.7701 39.28 22.9701 39.48 22.9701 39.88V42.4C22.9701 42.8 22.7701 43 22.3701 43H1.01008ZM32.7154 43.48C30.2754 43.48 28.1154 42.98 26.2354 41.98C24.3954 40.94 22.9554 39.5 21.9154 37.66C20.9154 35.82 20.4154 33.7 20.4154 31.3V12.76C20.4154 10.36 20.9154 8.24 21.9154 6.4C22.9554 4.52 24.3954 3.08 26.2354 2.08C28.1154 1.04 30.2754 0.52 32.7154 0.52C35.1554 0.52 37.2954 1.04 39.1354 2.08C41.0154 3.08 42.4754 4.52 43.5154 6.4C44.5554 8.24 45.0754 10.36 45.0754 12.76V31.3C45.0754 33.7 44.5554 35.82 43.5154 37.66C42.4754 39.5 41.0154 40.94 39.1354 41.98C37.2954 42.98 35.1554 43.48 32.7154 43.48ZM32.7154 39.76C35.1554 39.76 37.1154 39 38.5954 37.48C40.0754 35.96 40.8154 33.96 40.8154 31.48V12.64C40.8154 10.12 40.0754 8.1 38.5954 6.58C37.1154 5.02 35.1554 4.24 32.7154 4.24C30.3154 4.24 28.3754 5.02 26.8954 6.58C25.4154 8.1 24.6754 10.12 24.6754 12.64V31.48C24.6754 33.96 25.4154 35.96 26.8954 37.48C28.3754 39 30.3154 39.76 32.7154 39.76ZM53.6591 43C53.2991 43 53.0791 42.82 52.9991 42.46L42.0791 1.66L42.0191 1.48C42.0191 1.16 42.2191 0.999997 42.6191 0.999997H45.8591C46.2591 0.999997 46.4791 1.18 46.5191 1.54L55.2791 35.86C55.3191 35.94 55.3591 35.98 55.3991 35.98C55.4391 35.98 55.4791 35.94 55.5191 35.86L64.2791 1.54C64.3591 1.18 64.5791 0.999997 64.9391 0.999997H68.0591C68.2591 0.999997 68.3991 1.06 68.4791 1.18C68.5991 1.3 68.6391 1.46 68.5991 1.66L57.6791 42.46C57.5991 42.82 57.3791 43 57.0191 43H53.6591ZM90.6093 4.12C90.6093 4.52 90.4093 4.72 90.0093 4.72H72.0093C71.8493 4.72 71.7693 4.8 71.7693 4.96V19.84C71.7693 20 71.8493 20.08 72.0093 20.08H84.1293C84.5293 20.08 84.7293 20.28 84.7293 20.68V23.2C84.7293 23.6 84.5293 23.8 84.1293 23.8H72.0093C71.8493 23.8 71.7693 23.88 71.7693 24.04V39.04C71.7693 39.2 71.8493 39.28 72.0093 39.28H90.0093C90.4093 39.28 90.6093 39.48 90.6093 39.88V42.4C90.6093 42.8 90.4093 43 90.0093 43H68.1093C67.7093 43 67.5093 42.8 67.5093 42.4V1.6C67.5093 1.2 67.7093 0.999997 68.1093 0.999997H90.0093C90.4093 0.999997 90.6093 1.2 90.6093 1.6V4.12ZM90.7171 43C90.3171 43 90.1171 42.8 90.1171 42.4V1.6C90.1171 1.2 90.3171 0.999997 90.7171 0.999997H93.7771C94.1371 0.999997 94.3771 1.14 94.4971 1.42L103.377 19.18C103.417 19.26 103.477 19.3 103.557 19.3C103.637 19.3 103.697 19.26 103.737 19.18L112.677 1.42C112.797 1.14 113.037 0.999997 113.397 0.999997H116.517C116.917 0.999997 117.117 1.2 117.117 1.6V42.4C117.117 42.8 116.917 43 116.517 43H113.457C113.057 43 112.857 42.8 112.857 42.4V10.66C112.857 10.54 112.817 10.48 112.737 10.48C112.697 10.44 112.637 10.46 112.557 10.54L105.057 25.36C104.937 25.64 104.697 25.78 104.337 25.78H102.957C102.597 25.78 102.357 25.64 102.237 25.36L94.6771 10.48C94.5971 10.4 94.5171 10.36 94.4371 10.36C94.3971 10.36 94.3771 10.42 94.3771 10.54V42.4C94.3771 42.8 94.1771 43 93.7771 43H90.7171ZM140.701 43C140.341 43 140.121 42.82 140.041 42.46L138.061 34.96C138.021 34.84 137.921 34.78 137.761 34.78H123.421C123.261 34.78 123.161 34.84 123.121 34.96L121.141 42.46C121.061 42.82 120.841 43 120.481 43H117.361C117.161 43 117.001 42.94 116.881 42.82C116.801 42.7 116.781 42.54 116.821 42.34L127.981 1.54C128.061 1.18 128.281 0.999997 128.641 0.999997H132.481C132.841 0.999997 133.061 1.18 133.141 1.54L144.361 42.34L144.421 42.52C144.421 42.84 144.221 43 143.821 43H140.701ZM124.141 31.06C124.101 31.1 124.101 31.16 124.141 31.24C124.221 31.28 124.301 31.3 124.381 31.3H136.801C136.881 31.3 136.941 31.28 136.981 31.24C137.061 31.16 137.081 31.1 137.041 31.06L130.741 7.06C130.701 6.98 130.661 6.94 130.621 6.94C130.581 6.94 130.541 6.98 130.501 7.06L124.141 31.06ZM144.551 43C144.151 43 143.951 42.8 143.951 42.4V1.6C143.951 1.2 144.151 0.999997 144.551 0.999997H147.611C147.971 0.999997 148.211 1.14 148.331 1.42L157.211 19.18C157.251 19.26 157.311 19.3 157.391 19.3C157.471 19.3 157.531 19.26 157.571 19.18L166.511 1.42C166.631 1.14 166.871 0.999997 167.231 0.999997H170.351C170.751 0.999997 170.951 1.2 170.951 1.6V42.4C170.951 42.8 170.751 43 170.351 43H167.291C166.891 43 166.691 42.8 166.691 42.4V10.66C166.691 10.54 166.651 10.48 166.571 10.48C166.531 10.44 166.471 10.46 166.391 10.54L158.891 25.36C158.771 25.64 158.531 25.78 158.171 25.78H156.791C156.431 25.78 156.191 25.64 156.071 25.36L148.511 10.48C148.431 10.4 148.351 10.36 148.271 10.36C148.231 10.36 148.211 10.42 148.211 10.54V42.4C148.211 42.8 148.011 43 147.611 43H144.551ZM194.535 43C194.175 43 193.955 42.82 193.875 42.46L191.895 34.96C191.855 34.84 191.755 34.78 191.595 34.78H177.255C177.095 34.78 176.995 34.84 176.955 34.96L174.975 42.46C174.895 42.82 174.675 43 174.315 43H171.195C170.995 43 170.835 42.94 170.715 42.82C170.635 42.7 170.615 42.54 170.655 42.34L181.815 1.54C181.895 1.18 182.115 0.999997 182.475 0.999997H186.315C186.675 0.999997 186.895 1.18 186.975 1.54L198.195 42.34L198.255 42.52C198.255 42.84 198.055 43 197.655 43H194.535ZM177.975 31.06C177.935 31.1 177.935 31.16 177.975 31.24C178.055 31.28 178.135 31.3 178.215 31.3H190.635C190.715 31.3 190.775 31.28 190.815 31.24C190.895 31.16 190.915 31.1 190.875 31.06L184.575 7.06C184.535 6.98 184.495 6.94 184.455 6.94C184.415 6.94 184.375 6.98 184.335 7.06L177.975 31.06Z" fill="black"/>
</svg>
